<?xml version="1.0" encoding="iso-8859-1"?>
<!-- Generator: Adobe Illustrator 19.0.0, SVG Export Plug-In . SVG Version: 6.00 Build 0)  -->
<svg version="1.1" id="Layer_1" xmlns="http://www.w3.org/2000/svg" xmlns:xlink="http://www.w3.org/1999/xlink" x="0px" y="0px"
	 viewBox="0 0 502.056 502.056" style="enable-background:new 0 0 502.056 502.056;" xml:space="preserve">
<g>
	<g>
		<path style="fill:#FFF9E6;" d="M443.857,201.815L443.857,201.815c-25.022,0-45.74-19.326-47.988-43.786h-0.424
			c-2.248,24.461-22.966,43.786-47.988,43.786l0,0c-25.022,0-45.74-19.326-47.988-43.786h-0.424
			c-2.248,24.461-22.966,43.786-47.988,43.786l0,0c-25.022,0-45.74-19.326-47.988-43.786h-0.424
			c-2.248,24.461-22.966,43.786-47.988,43.786l0,0c-25.022,0-45.74-19.326-47.988-43.786h-0.424
			c-2.248,24.461-22.966,43.786-47.988,43.786l0,0c-25.022,0-45.74-19.326-47.988-43.786h-0.212v273.75h482v-273.75h-0.212
			C489.596,182.489,468.878,201.815,443.857,201.815z"/>
		<path style="fill:#5CC9C1;" d="M472.056,70.278h-86.4h-91.4h-86.4h-91.4h-86.4l-20,83.336c0,1.488,0.078,2.959,0.212,4.414
			c2.248,24.461,22.966,43.786,47.988,43.786l0,0c25.022,0,45.74-19.326,47.988-43.786h0.424
			c2.248,24.461,22.966,43.786,47.988,43.786l0,0c25.022,0,45.74-19.326,47.988-43.786h0.424
			c2.248,24.461,22.966,43.786,47.988,43.786l0,0c25.022,0,45.74-19.326,47.988-43.786h0.424
			c2.248,24.461,22.966,43.786,47.988,43.786l0,0c25.022,0,45.74-19.326,47.988-43.786h0.424
			c2.248,24.461,22.966,43.786,47.988,43.786l0,0c25.022,0,45.74-19.326,47.988-43.786c0.134-1.455,0.212-2.925,0.212-4.414
			L472.056,70.278z"/>
	</g>
	<rect x="312.056" y="266.232" style="fill:#5CC9C1;" width="103.607" height="165.547"/>
	<rect x="124.056" y="266.232" style="fill:#5CC9C1;" width="103.607" height="69.797"/>
	<g>
		<path d="M492.056,441.778c5.523,0,10-4.477,10-10v-273.75c0-1.469-0.093-5.983-0.276-6.747l-20-83.336
			c-1.079-4.497-5.1-7.667-9.724-7.667h-442c-4.624,0-8.645,3.17-9.724,7.667l-20,83.336c-0.518,2.161-0.276,4.545-0.276,6.747
			v273.75c0,5.523,4.477,10,10,10H492.056z M482.04,154.731c-0.592,20.55-17.493,37.084-38.184,37.084
			c-21.063,0-38.2-17.137-38.2-38.2c0-0.398-0.024-0.796-0.071-1.191l-8.657-72.145h67.244L482.04,154.731z M376.785,80.278
			l8.868,73.901c-0.302,20.806-17.32,37.636-38.196,37.636c-21.063,0-38.2-17.137-38.2-38.2c0-0.2-0.006-0.399-0.018-0.599
			l-4.364-72.737h71.91V80.278z M217.274,80.278h67.564l4.417,73.62c-0.152,20.935-17.229,37.917-38.199,37.917
			s-38.047-16.982-38.199-37.917L217.274,80.278z M192.874,153.016c-0.012,0.2-0.018,0.399-0.018,0.599
			c0,21.063-17.136,38.2-38.2,38.2c-20.876,0-37.894-16.83-38.196-37.636l8.868-73.901h71.91L192.874,153.016z M37.941,80.278
			h67.244l-8.657,72.145c-0.047,0.396-0.071,0.793-0.071,1.191c0,21.063-17.136,38.2-38.2,38.2
			c-20.691,0-37.592-16.534-38.184-37.084L37.941,80.278z M322.056,421.778V276.231h83.607v145.547L322.056,421.778L322.056,421.778
			z M425.664,421.778V266.231c0-5.523-4.477-10-10-10H312.056c-5.523,0-10,4.477-10,10v155.547h-282v-224.31
			c10.231,8.924,23.59,14.347,38.2,14.347c20.028,0,37.721-10.174,48.196-25.621c10.475,15.449,28.173,25.621,48.203,25.621
			c20.029,0,37.725-10.17,48.2-25.616c10.475,15.446,28.172,25.616,48.2,25.616s37.725-10.17,48.2-25.616
			c10.475,15.446,28.171,25.616,48.2,25.616c20.03,0,37.729-10.172,48.203-25.621c10.475,15.447,28.168,25.621,48.196,25.621
			c14.61,0,27.969-5.423,38.2-14.347v224.31L425.664,421.778L425.664,421.778z"/>
		<path d="M227.664,256.231H124.056c-5.523,0-10,4.477-10,10v69.797c0,5.523,4.477,10,10,10h103.607c5.523,0,10-4.477,10-10v-69.797
			C237.664,260.708,233.187,256.231,227.664,256.231z M217.664,326.028h-83.607v-49.797h83.607V326.028z"/>
		<path d="M44.056,305.028c-5.523,0-10,4.477-10,10v84c0,5.523,4.477,10,10,10s10-4.477,10-10v-84
			C54.056,309.505,49.579,305.028,44.056,305.028z"/>
		<path d="M44.056,245.028c-5.523,0-10,4.477-10,10v21c0,5.523,4.477,10,10,10s10-4.477,10-10v-21
			C54.056,249.505,49.579,245.028,44.056,245.028z"/>
		<path d="M343.056,326.028c-5.523,0-10,4.477-10,10v21c0,5.523,4.477,10,10,10s10-4.477,10-10v-21
			C353.056,330.505,348.579,326.028,343.056,326.028z"/>
		<path d="M446.556,183.028c5.523,0,10-4.477,10-10s-4.477-10-10-10c-6.341,0-11.5-5.159-11.5-11.5c0-5.523-4.477-10-10-10
			s-10,4.477-10,10C415.056,168.897,429.187,183.028,446.556,183.028z"/>
		<path d="M254.056,183.028c5.523,0,10-4.477,10-10s-4.477-10-10-10c-6.341,0-11.5-5.159-11.5-11.5c0-5.523-4.477-10-10-10
			s-10,4.477-10,10C222.556,168.897,236.687,183.028,254.056,183.028z"/>
	</g>
</g>
<g>
</g>
<g>
</g>
<g>
</g>
<g>
</g>
<g>
</g>
<g>
</g>
<g>
</g>
<g>
</g>
<g>
</g>
<g>
</g>
<g>
</g>
<g>
</g>
<g>
</g>
<g>
</g>
<g>
</g>
</svg>
